<?xml version="1.0" encoding="utf-8"?>
<svg version="1.1" xmlns:xlink="http://www.w3.org/1999/xlink" width="128px" height="42px" xmlns="http://www.w3.org/2000/svg">
  <defs>
    <filter x="27px" y="95px" width="128px" height="42px" filterUnits="userSpaceOnUse" id="filter64">
      <feOffset dx="0" dy="0" in="SourceAlpha" result="shadowOffsetInner" />
      <feGaussianBlur stdDeviation="2.5" in="shadowOffsetInner" result="shadowGaussian" />
      <feComposite in2="shadowGaussian" operator="atop" in="SourceAlpha" result="shadowComposite" />
      <feColorMatrix type="matrix" values="0 0 0 0 0  0 0 0 0 0  0 0 0 0 0  0 0 0 0.313725490196078 0  " in="shadowComposite" />
    </filter>
    <g id="widget65">
      <path d="M 4.60039705666077 0.317631783585512  C 3.41799627843898 0.348747593538747  2.4222903599366 0.768811027907077  1.61327930115317 1.57782208669028  C 0.78871033739324 2.40239105045021  0.376425855513389 3.39031801646433  1 4.54160298473289  L 1 27.4817338727321  C 0.384204808001641 28.6641346509539  0.804268242369972 29.6598405694563  1.61327930115317 30.4688516282397  C 2.4378482649131 31.2934205919996  3.42577523092723 31.7057050738795  4.57706019919578 31.7057050738795  L 99.4489996417656 31.6590313589495  C 100.615842515011 31.6745892639262  101.903259151824 31.3906574981033  103.311249552207 30.8072360614806  C 104.719239952589 30.2238146248581  105.835519634661 29.5198194246668  106.66008859842 28.6952504609071  L 116.36822130382 18.9871177555076  C 117.177232362603 18.1781066967242  117.581737891995 17.1824007782218  117.581737891995 16  C 117.581737891995 14.8175992217782  117.177232362603 13.8218933032758  116.36822130382 13.0128822444924  L 106.66008859842 3.30474953909311  C 105.835519634661 2.48018057533318  104.719239952589 1.77618537514195  103.311249552207 1.19276393851942  C 101.903259151824 0.609342501896663  100.608063562522 0.317631783585512  99.4256627843006 0.317631783585512  L 4.60039705666077 0.317631783585512  Z " fill-rule="nonzero" fill="#f82f2f" stroke="none" transform="matrix(1 0 0 1 32 100 )" />
    </g>
  </defs>
  <g transform="matrix(1 0 0 1 -27 -95 )">
    <use xlink:href="#widget65" filter="url(#filter64)" />
    <use xlink:href="#widget65" />
  </g>
</svg>