<?xml version="1.0" encoding="utf-8"?>
<svg version="1.1" xmlns:xlink="http://www.w3.org/1999/xlink" width="128px" height="42px" xmlns="http://www.w3.org/2000/svg">
  <defs>
    <filter x="240px" y="664px" width="128px" height="42px" filterUnits="userSpaceOnUse" id="filter69">
      <feOffset dx="0" dy="0" in="SourceAlpha" result="shadowOffsetInner" />
      <feGaussianBlur stdDeviation="2.5" in="shadowOffsetInner" result="shadowGaussian" />
      <feComposite in2="shadowGaussian" operator="atop" in="SourceAlpha" result="shadowComposite" />
      <feColorMatrix type="matrix" values="0 0 0 0 0  0 0 0 0 0  0 0 0 0 0  0 0 0 0.313725490196078 0  " in="shadowComposite" />
    </filter>
    <g id="widget70">
      <path d="M 113.399602943339 31.6823682164145  C 114.582003721561 31.6512524064613  115.577709640063 31.2311889720929  116.386720698847 30.4221779133097  C 117.211289662607 29.5976089495498  117.623574144487 28.6096819835357  117 27.4583970152671  L 117 4.51826612726791  C 117.615795191998 3.33586534904612  117.19573175763 2.34015943054374  116.386720698847 1.53114837176031  C 115.562151735087 0.70657940800038  114.574224769073 0.294294926120529  113.422939800804 0.294294926120529  L 18.5510003582344 0.340968641050495  C 17.3841574849894 0.325410736073763  16.0967408481756 0.609342501896663  14.6887504477932 1.19276393851942  C 13.2807600474107 1.77618537514195  12.1644803653394 2.48018057533318  11.3399114015797 3.30474953909288  L 1.63177869618016 13.0128822444924  C 0.82276763739674 13.8218933032758  0.418262108005364 14.8175992217782  0.418262108005141 16  C 0.418262108005364 17.1824007782218  0.82276763739674 18.1781066967242  1.63177869618016 18.9871177555076  L 11.3399114015797 28.6952504609069  C 12.1644803653394 29.5198194246668  13.2807600474107 30.2238146248581  14.6887504477932 30.8072360614806  C 16.0967408481756 31.3906574981033  17.3919364374776 31.6823682164145  18.5743372156994 31.6823682164145  L 113.399602943339 31.6823682164145  Z " fill-rule="nonzero" fill="#f82f2f" stroke="none" transform="matrix(1 0 0 1 245 669 )" />
    </g>
  </defs>
  <g transform="matrix(1 0 0 1 -240 -664 )">
    <use xlink:href="#widget70" filter="url(#filter69)" />
    <use xlink:href="#widget70" />
  </g>
</svg>