<?xml version="1.0" encoding="utf-8"?>
<svg version="1.1" xmlns:xlink="http://www.w3.org/1999/xlink" width="16px" height="21px" xmlns="http://www.w3.org/2000/svg">
  <defs>
    <mask fill="white" id="clip44">
      <path d="M 0 8  C 0 11.9949859236506  2.92830497302157 15.3060295746887  6.75555555555547 15.9037888890861  L 6.75555555555547 20.2666666666667  L 9.24444444444453 20.2666666666667  L 9.24442714563747 15.9037888884121  C 13.0716950269784 15.3060295746887  16 11.9949859236506  16 8  C 16 3.58172200160001  12.4182779983998 0  8 0  C 3.58172200160016 0  0 3.58172200160001  0 8  Z " fill-rule="evenodd" />
    </mask>
  </defs>
  <g transform="matrix(1 0 0 1 -660 -564 )">
    <path d="M 0 8  C 0 11.9949859236506  2.92830497302157 15.3060295746887  6.75555555555547 15.9037888890861  L 6.75555555555547 20.2666666666667  L 9.24444444444453 20.2666666666667  L 9.24442714563747 15.9037888884121  C 13.0716950269784 15.3060295746887  16 11.9949859236506  16 8  C 16 3.58172200160001  12.4182779983998 0  8 0  C 3.58172200160016 0  0 3.58172200160001  0 8  Z " fill-rule="nonzero" fill="#ffffff" stroke="none" fill-opacity="0" transform="matrix(1 0 0 1 660 564 )" />
    <path d="M 0 8  C 0 11.9949859236506  2.92830497302157 15.3060295746887  6.75555555555547 15.9037888890861  L 6.75555555555547 20.2666666666667  L 9.24444444444453 20.2666666666667  L 9.24442714563747 15.9037888884121  C 13.0716950269784 15.3060295746887  16 11.9949859236506  16 8  C 16 3.58172200160001  12.4182779983998 0  8 0  C 3.58172200160016 0  0 3.58172200160001  0 8  Z " stroke-width="4" stroke="#18192f" fill="none" transform="matrix(1 0 0 1 660 564 )" mask="url(#clip44)" />
  </g>
</svg>