<?xml version="1.0" encoding="utf-8"?>
<svg version="1.1" xmlns:xlink="http://www.w3.org/1999/xlink" width="16px" height="14px" xmlns="http://www.w3.org/2000/svg">
  <defs>
    <mask fill="white" id="clip46">
      <path d="M 7.38656888888888 13.7321724944947  C 7.38656888888888 13.7321724944947  3.89719555555555 10.0435598534231  1.60146177777779 7.6167423093502  C 0.625812888888883 6.83473894619247  0 5.62589153013603  0 4.26924943940745  C 0 1.91140813625099  1.89035333333332 0  4.22222222222222 0  C 5.87558399999999 0  7.30698666666667 0.960906036218767  8 2.36053722182877  C 8.69301333333333 0.960906036218767  10.124416 0  11.7777777777778 0  C 14.1096466666667 0  16 1.91140813625099  16 4.26924943940745  C 16 5.62589153013603  15.3741871111111 6.83473894619247  14.3985382222222 7.6167423093502  C 12.0549475555556 10.0941495604908  8.61595333333334 13.7295062358711  8.61595333333334 13.7295062358711  C 8.27575466666667 14.0891298328597  7.72535777777777 14.0903054493369  7.38656888888888 13.7321724944947  Z " fill-rule="evenodd" />
    </mask>
  </defs>
  <g transform="matrix(1 0 0 1 -552 -1303 )">
    <path d="M 7.38656888888888 13.7321724944947  C 7.38656888888888 13.7321724944947  3.89719555555555 10.0435598534231  1.60146177777779 7.6167423093502  C 0.625812888888883 6.83473894619247  0 5.62589153013603  0 4.26924943940745  C 0 1.91140813625099  1.89035333333332 0  4.22222222222222 0  C 5.87558399999999 0  7.30698666666667 0.960906036218767  8 2.36053722182877  C 8.69301333333333 0.960906036218767  10.124416 0  11.7777777777778 0  C 14.1096466666667 0  16 1.91140813625099  16 4.26924943940745  C 16 5.62589153013603  15.3741871111111 6.83473894619247  14.3985382222222 7.6167423093502  C 12.0549475555556 10.0941495604908  8.61595333333334 13.7295062358711  8.61595333333334 13.7295062358711  C 8.27575466666667 14.0891298328597  7.72535777777777 14.0903054493369  7.38656888888888 13.7321724944947  Z " fill-rule="nonzero" fill="#ffffff" stroke="none" fill-opacity="0" transform="matrix(1 0 0 1 552 1303 )" />
    <path d="M 7.38656888888888 13.7321724944947  C 7.38656888888888 13.7321724944947  3.89719555555555 10.0435598534231  1.60146177777779 7.6167423093502  C 0.625812888888883 6.83473894619247  0 5.62589153013603  0 4.26924943940745  C 0 1.91140813625099  1.89035333333332 0  4.22222222222222 0  C 5.87558399999999 0  7.30698666666667 0.960906036218767  8 2.36053722182877  C 8.69301333333333 0.960906036218767  10.124416 0  11.7777777777778 0  C 14.1096466666667 0  16 1.91140813625099  16 4.26924943940745  C 16 5.62589153013603  15.3741871111111 6.83473894619247  14.3985382222222 7.6167423093502  C 12.0549475555556 10.0941495604908  8.61595333333334 13.7295062358711  8.61595333333334 13.7295062358711  C 8.27575466666667 14.0891298328597  7.72535777777777 14.0903054493369  7.38656888888888 13.7321724944947  Z " stroke-width="3.59999990463257" stroke="#c3c3d0" fill="none" transform="matrix(1 0 0 1 552 1303 )" mask="url(#clip46)" />
  </g>
</svg>