<?xml version="1.0" encoding="utf-8"?>
<svg version="1.1" xmlns:xlink="http://www.w3.org/1999/xlink" width="14px" height="18px" xmlns="http://www.w3.org/2000/svg">
  <defs>
    <mask fill="white" id="clip45">
      <path d="M 6.42754275461675 17.4956704765633  C 6.81688334780529 18.1657272137186  7.78818566976042 18.1657272137186  8.17342794091564 17.4956704765633  C 8.17342794091564 17.4956704765633  12.825023449011 10.3102731103332  12.825023449011 10.3102731103332  C 12.825023449011 10.3102731103332  13.001251296454 10.0038447244391  13.001251296454 10.0038447244391  C 13.4069851777772 9.25207375104537  13.6692777879252 8.41041711778939  13.7512442285965 7.5156462309784  C 13.7676375167307 7.32770348762995  13.7758341607978 7.13567503246964  13.7758341607978 6.94364657730932  C 13.7758341607978 3.38090587731313  10.8783204830679 0.49230762628406  7.30458366980019 0.49230762628406  C 3.73084685653248 0.49230762628406  0.833333178802604 3.38090587731313  0.833333178802604 6.94364657730932  C 0.833333178802604 7.13567503246964  0.841529822869688 7.32770348762995  0.857923111003856 7.5156462309784  C 0.935791229641836 8.41041711778939  1.19808383978989 9.24798803923341  1.60381772111259 9.99975901262712  C 1.60381772111259 9.99975901262712  1.78414389058935 10.3102731103332  1.78414389058935 10.3102731103332  C 1.78414389058935 10.3102731103332  6.42754275461675 17.4956704765633  6.42754275461675 17.4956704765633  Z M 9.40292455098506 6.94364657730932  C 9.40292455098506 7.14384645609346  9.37423629675004 7.33587491125388  9.32095811031377 7.5156462309784  C 9.07096046626657 8.39407427054164  8.26359102565448 9.03553102501348  7.30458366980019 9.03553102501348  C 6.34557631394637 9.03553102501348  5.53820687333427 8.39407427054164  5.28820922928708 7.51973194279037  C 5.15706292421282 7.06213221985502  5.17755453438076 6.54324681974094  5.41115889029379 6.01618999600294  C 5.59968170383763 5.58310454393916  5.95213739872406 5.23581903992579  6.39065785631556 5.04787629657733  C 7.92343029686845 4.39007669485795  9.40292455098506 5.4932188840769  9.40292455098506 6.94364657730932  Z " fill-rule="evenodd" />
    </mask>
  </defs>
  <g transform="matrix(1 0 0 1 -458 -1301 )">
    <path d="M 6.42754275461675 17.4956704765633  C 6.81688334780529 18.1657272137186  7.78818566976042 18.1657272137186  8.17342794091564 17.4956704765633  C 8.17342794091564 17.4956704765633  12.825023449011 10.3102731103332  12.825023449011 10.3102731103332  C 12.825023449011 10.3102731103332  13.001251296454 10.0038447244391  13.001251296454 10.0038447244391  C 13.4069851777772 9.25207375104537  13.6692777879252 8.41041711778939  13.7512442285965 7.5156462309784  C 13.7676375167307 7.32770348762995  13.7758341607978 7.13567503246964  13.7758341607978 6.94364657730932  C 13.7758341607978 3.38090587731313  10.8783204830679 0.49230762628406  7.30458366980019 0.49230762628406  C 3.73084685653248 0.49230762628406  0.833333178802604 3.38090587731313  0.833333178802604 6.94364657730932  C 0.833333178802604 7.13567503246964  0.841529822869688 7.32770348762995  0.857923111003856 7.5156462309784  C 0.935791229641836 8.41041711778939  1.19808383978989 9.24798803923341  1.60381772111259 9.99975901262712  C 1.60381772111259 9.99975901262712  1.78414389058935 10.3102731103332  1.78414389058935 10.3102731103332  C 1.78414389058935 10.3102731103332  6.42754275461675 17.4956704765633  6.42754275461675 17.4956704765633  Z M 9.40292455098506 6.94364657730932  C 9.40292455098506 7.14384645609346  9.37423629675004 7.33587491125388  9.32095811031377 7.5156462309784  C 9.07096046626657 8.39407427054164  8.26359102565448 9.03553102501348  7.30458366980019 9.03553102501348  C 6.34557631394637 9.03553102501348  5.53820687333427 8.39407427054164  5.28820922928708 7.51973194279037  C 5.15706292421282 7.06213221985502  5.17755453438076 6.54324681974094  5.41115889029379 6.01618999600294  C 5.59968170383763 5.58310454393916  5.95213739872406 5.23581903992579  6.39065785631556 5.04787629657733  C 7.92343029686845 4.39007669485795  9.40292455098506 5.4932188840769  9.40292455098506 6.94364657730932  Z " fill-rule="nonzero" fill="#ffffff" stroke="none" fill-opacity="0" transform="matrix(1 0 0 1 458 1301 )" />
    <path d="M 6.42754275461675 17.4956704765633  C 6.81688334780529 18.1657272137186  7.78818566976042 18.1657272137186  8.17342794091564 17.4956704765633  C 8.17342794091564 17.4956704765633  12.825023449011 10.3102731103332  12.825023449011 10.3102731103332  C 12.825023449011 10.3102731103332  13.001251296454 10.0038447244391  13.001251296454 10.0038447244391  C 13.4069851777772 9.25207375104537  13.6692777879252 8.41041711778939  13.7512442285965 7.5156462309784  C 13.7676375167307 7.32770348762995  13.7758341607978 7.13567503246964  13.7758341607978 6.94364657730932  C 13.7758341607978 3.38090587731313  10.8783204830679 0.49230762628406  7.30458366980019 0.49230762628406  C 3.73084685653248 0.49230762628406  0.833333178802604 3.38090587731313  0.833333178802604 6.94364657730932  C 0.833333178802604 7.13567503246964  0.841529822869688 7.32770348762995  0.857923111003856 7.5156462309784  C 0.935791229641836 8.41041711778939  1.19808383978989 9.24798803923341  1.60381772111259 9.99975901262712  C 1.60381772111259 9.99975901262712  1.78414389058935 10.3102731103332  1.78414389058935 10.3102731103332  C 1.78414389058935 10.3102731103332  6.42754275461675 17.4956704765633  6.42754275461675 17.4956704765633  Z " stroke-width="3.59999990463257" stroke="#cacad8" fill="none" transform="matrix(1 0 0 1 458 1301 )" mask="url(#clip45)" />
    <path d="M 9.40292455098506 6.94364657730932  C 9.40292455098506 7.14384645609346  9.37423629675004 7.33587491125388  9.32095811031377 7.5156462309784  C 9.07096046626657 8.39407427054164  8.26359102565448 9.03553102501348  7.30458366980019 9.03553102501348  C 6.34557631394637 9.03553102501348  5.53820687333427 8.39407427054164  5.28820922928708 7.51973194279037  C 5.15706292421282 7.06213221985502  5.17755453438076 6.54324681974094  5.41115889029379 6.01618999600294  C 5.59968170383763 5.58310454393916  5.95213739872406 5.23581903992579  6.39065785631556 5.04787629657733  C 7.92343029686845 4.39007669485795  9.40292455098506 5.4932188840769  9.40292455098506 6.94364657730932  Z " stroke-width="3.59999990463257" stroke="#cacad8" fill="none" transform="matrix(1 0 0 1 458 1301 )" mask="url(#clip45)" />
  </g>
</svg>