<?xml version="1.0" encoding="utf-8"?>
<svg version="1.1" xmlns:xlink="http://www.w3.org/1999/xlink" width="22px" height="20px" xmlns="http://www.w3.org/2000/svg">
  <defs>
    <mask fill="white" id="clip49">
      <path d="M 0.317307692307692 10  L 5.60576923076923 10  L 5.60576923076923 19.7435897435898  L 0.317307692307692 19.7435897435898  L 0.317307692307692 10  Z M 8.25 0.256410256410198  L 13.5384615384615 0.256410256410198  L 13.5384615384615 19.7435897435898  L 8.25 19.7435897435898  L 8.25 0.256410256410198  Z M 16 5.12820512820519  L 21.4711538461538 5.12820512820519  L 21.4711538461538 19.7435897435898  L 16 19.7435897435898  L 16 5.12820512820519  Z " fill-rule="evenodd" />
    </mask>
  </defs>
  <g transform="matrix(1 0 0 1 -815 -821 )">
    <path d="M 0.317307692307692 10  L 5.60576923076923 10  L 5.60576923076923 19.7435897435898  L 0.317307692307692 19.7435897435898  L 0.317307692307692 10  Z M 8.25 0.256410256410198  L 13.5384615384615 0.256410256410198  L 13.5384615384615 19.7435897435898  L 8.25 19.7435897435898  L 8.25 0.256410256410198  Z M 16 5.12820512820519  L 21.4711538461538 5.12820512820519  L 21.4711538461538 19.7435897435898  L 16 19.7435897435898  L 16 5.12820512820519  Z " fill-rule="nonzero" fill="#000000" stroke="none" fill-opacity="0" transform="matrix(1 0 0 1 815 821 )" />
    <path d="M 0.317307692307692 10  L 5.60576923076923 10  L 5.60576923076923 19.7435897435898  L 0.317307692307692 19.7435897435898  L 0.317307692307692 10  Z " stroke-width="4" stroke="#333333" fill="none" transform="matrix(1 0 0 1 815 821 )" mask="url(#clip49)" />
    <path d="M 8.25 0.256410256410198  L 13.5384615384615 0.256410256410198  L 13.5384615384615 19.7435897435898  L 8.25 19.7435897435898  L 8.25 0.256410256410198  Z " stroke-width="4" stroke="#333333" fill="none" transform="matrix(1 0 0 1 815 821 )" mask="url(#clip49)" />
    <path d="M 16 5.12820512820519  L 21.4711538461538 5.12820512820519  L 21.4711538461538 19.7435897435898  L 16 19.7435897435898  L 16 5.12820512820519  Z " stroke-width="4" stroke="#333333" fill="none" transform="matrix(1 0 0 1 815 821 )" mask="url(#clip49)" />
  </g>
</svg>