<?xml version="1.0" encoding="utf-8"?>
<svg version="1.1" xmlns:xlink="http://www.w3.org/1999/xlink" width="18px" height="22px" xmlns="http://www.w3.org/2000/svg">
  <g transform="matrix(1 0 0 1 -817 -975 )">
    <path d="M 16 19.920687376074  L 16 2  L 2 2  L 2 19.920687376074  L 7.7484375 14.0171844018506  L 9 12.7812293456709  L 10.2515625 14.0171844018506  L 16 19.920687376074  Z M 1.63125 0  L 16.36875 0  C 16.584375 0  16.790625 0.0436219431592866  16.9875 0.13086582947786  C 17.296875 0.25688477638246  17.54296875 0.455606961885877  17.72578125 0.727032385988103  C 17.90859375 0.998457810090327  18 1.29896452963208  18 1.62855254461335  L 18 20.3714474553867  C 18 20.7010354703679  17.90859375 21.0015421899097  17.72578125 21.2729676140119  C 17.54296875 21.5443930381141  17.296875 21.7431152236175  16.9875 21.8691341705221  C 16.809375 21.9466842916942  16.603125 21.9854593522802  16.36875 21.9854593522802  C 15.91875 21.9854593522802  15.5296875 21.8303591099361  15.2015625 21.5201586252479  L 9 15.3549239920687  L 2.7984375 21.5201586252479  C 2.4609375 21.8400528750826  2.071875 22  1.63125 22  C 1.415625 22  1.209375 21.9563780568407  1.0125 21.8691341705221  C 0.703125 21.7431152236175  0.45703125 21.5443930381141  0.27421875 21.2729676140119  C 0.09140625 21.0015421899097  0 20.7010354703679  0 20.3714474553867  L 0 1.62855254461335  C 0 1.29896452963208  0.09140625 0.998457810090327  0.27421875 0.727032385988103  C 0.45703125 0.455606961885877  0.703125 0.25688477638246  1.0125 0.13086582947786  C 1.209375 0.0436219431592866  1.415625 0  1.63125 0  Z " fill-rule="nonzero" fill="#9fa0a5" stroke="none" transform="matrix(1 0 0 1 817 975 )" />
  </g>
</svg>