<?xml version="1.0" encoding="utf-8"?>
<svg version="1.1" xmlns:xlink="http://www.w3.org/1999/xlink" width="19px" height="21px" xmlns="http://www.w3.org/2000/svg">
  <g transform="matrix(1 0 0 1 -817 -1056 )">
    <path d="M 1.46153846153846 7.5  L 1.46153846153846 19.5  L 17.5384615384615 19.5  L 17.5384615384615 7.5  L 1.46153846153846 7.5  Z M 5.74338942307692 5.51953125  C 5.81189903846154 5.44921875  5.84615384615385 5.359375  5.84615384615385 5.25  L 5.84615384615385 1.875  C 5.84615384615385 1.765625  5.81189903846154 1.67578125  5.74338942307692 1.60546875  C 5.67487980769231 1.53515625  5.58733974358974 1.5  5.48076923076923 1.5  L 4.75 1.5  C 4.64342948717949 1.5  4.55588942307692 1.53515625  4.48737980769231 1.60546875  C 4.41887019230769 1.67578125  4.38461538461539 1.765625  4.38461538461539 1.875  L 4.38461538461539 5.25  C 4.38461538461539 5.359375  4.41887019230769 5.44921875  4.48737980769231 5.51953125  C 4.55588942307692 5.58984375  4.64342948717949 5.625  4.75 5.625  L 5.48076923076923 5.625  C 5.58733974358974 5.625  5.67487980769231 5.58984375  5.74338942307692 5.51953125  Z M 14.5126201923077 5.51953125  C 14.5811298076923 5.44921875  14.6153846153846 5.359375  14.6153846153846 5.25  L 14.6153846153846 1.875  C 14.6153846153846 1.765625  14.5811298076923 1.67578125  14.5126201923077 1.60546875  C 14.4441105769231 1.53515625  14.3565705128205 1.5  14.25 1.5  L 13.5192307692308 1.5  C 13.4126602564103 1.5  13.3251201923077 1.53515625  13.2566105769231 1.60546875  C 13.1881009615385 1.67578125  13.1538461538462 1.765625  13.1538461538462 1.875  L 13.1538461538462 5.25  C 13.1538461538462 5.359375  13.1881009615385 5.44921875  13.2566105769231 5.51953125  C 13.3251201923077 5.58984375  13.4126602564103 5.625  13.5192307692308 5.625  L 14.25 5.625  C 14.3565705128205 5.625  14.4441105769231 5.58984375  14.5126201923077 5.51953125  Z M 18.5661057692308 3.4453125  C 18.8553685897436 3.7421875  19 4.09375  19 4.5  L 19 19.5  C 19 19.90625  18.8553685897436 20.2578125  18.5661057692308 20.5546875  C 18.2768429487179 20.8515625  17.9342948717949 21  17.5384615384615 21  L 1.46153846153846 21  C 1.06570512820513 21  0.723157051282051 20.8515625  0.433894230769231 20.5546875  C 0.14463141025641 20.2578125  0 19.90625  0 19.5  L 0 4.5  C 0 4.09375  0.14463141025641 3.7421875  0.433894230769231 3.4453125  C 0.723157051282051 3.1484375  1.06570512820513 3  1.46153846153846 3  L 2.92307692307692 3  L 2.92307692307692 1.875  C 2.92307692307692 1.359375  3.10196314102564 0.917968749999999  3.45973557692308 0.550781250000001  C 3.81750801282051 0.18359375  4.24759615384615 0  4.75 0  L 5.48076923076923 0  C 5.98317307692308 0  6.41326121794872 0.18359375  6.77103365384615 0.550781250000001  C 7.12880608974359 0.917968749999999  7.30769230769231 1.359375  7.30769230769231 1.875  L 7.30769230769231 3  L 11.6923076923077 3  L 11.6923076923077 1.875  C 11.6923076923077 1.359375  11.8711939102564 0.917968749999999  12.2289663461538 0.550781250000001  C 12.5867387820513 0.18359375  13.0168269230769 0  13.5192307692308 0  L 14.25 0  C 14.7524038461538 0  15.1824919871795 0.18359375  15.5402644230769 0.550781250000001  C 15.8980368589744 0.917968749999999  16.0769230769231 1.359375  16.0769230769231 1.875  L 16.0769230769231 3  L 17.5384615384615 3  C 17.9342948717949 3  18.2768429487179 3.1484375  18.5661057692308 3.4453125  Z " fill-rule="nonzero" fill="#9fa0a5" stroke="none" transform="matrix(1 0 0 1 817 1056 )" />
  </g>
</svg>