<?xml version="1.0" encoding="utf-8"?>
<svg version="1.1" xmlns:xlink="http://www.w3.org/1999/xlink" width="22px" height="22px" xmlns="http://www.w3.org/2000/svg">
  <g transform="matrix(1 0 0 1 -815 -1216 )">
    <path d="M 12.7044270833333 5.62890625  C 12.7903645833333 5.71484375  12.8333333333333 5.82465277777778  12.8333333333333 5.95833333333333  L 12.8333333333333 12.375  C 12.8333333333333 12.5086805555556  12.7903645833333 12.6184895833333  12.7044270833333 12.7044270833333  C 12.6184895833333 12.7903645833333  12.5086805555556 12.8333333333333  12.375 12.8333333333333  L 7.79166666666667 12.8333333333333  C 7.65798611111111 12.8333333333333  7.54817708333333 12.7903645833333  7.46223958333333 12.7044270833333  C 7.37630208333333 12.6184895833333  7.33333333333333 12.5086805555556  7.33333333333333 12.375  L 7.33333333333333 11.4583333333333  C 7.33333333333333 11.3246527777778  7.37630208333333 11.21484375  7.46223958333333 11.12890625  C 7.54817708333333 11.04296875  7.65798611111111 11  7.79166666666667 11  L 11 11  L 11 5.95833333333333  C 11 5.82465277777778  11.04296875 5.71484375  11.12890625 5.62890625  C 11.21484375 5.54296875  11.3246527777778 5.5  11.4583333333333 5.5  L 12.375 5.5  C 12.5086805555556 5.5  12.6184895833333 5.54296875  12.7044270833333 5.62890625  Z M 17.74609375 14.91015625  C 18.4431423611111 13.7165798611111  18.7916666666667 12.4131944444444  18.7916666666667 11  C 18.7916666666667 9.58680555555555  18.4431423611111 8.28342013888889  17.74609375 7.08984375  C 17.0490451388889 5.89626736111111  16.1037326388889 4.95095486111111  14.91015625 4.25390625  C 13.7165798611111 3.55685763888889  12.4131944444444 3.20833333333333  11 3.20833333333333  C 9.58680555555556 3.20833333333333  8.28342013888889 3.55685763888889  7.08984375 4.25390625  C 5.89626736111111 4.95095486111111  4.95095486111111 5.89626736111111  4.25390625 7.08984375  C 3.55685763888889 8.28342013888889  3.20833333333333 9.58680555555555  3.20833333333333 11  C 3.20833333333333 12.4131944444444  3.55685763888889 13.7165798611111  4.25390625 14.91015625  C 4.95095486111111 16.1037326388889  5.89626736111111 17.0490451388889  7.08984375 17.74609375  C 8.28342013888889 18.4431423611111  9.58680555555556 18.7916666666667  11 18.7916666666667  C 12.4131944444444 18.7916666666667  13.7165798611111 18.4431423611111  14.91015625 17.74609375  C 16.1037326388889 17.0490451388889  17.0490451388889 16.1037326388889  17.74609375 14.91015625  Z M 20.5247395833333 5.478515625  C 21.5082465277778 7.16384548611111  22 9.00434027777778  22 11  C 22 12.9956597222222  21.5082465277778 14.8361545138889  20.5247395833333 16.521484375  C 19.5412326388889 18.2068142361111  18.2068142361111 19.5412326388889  16.521484375 20.5247395833333  C 14.8361545138889 21.5082465277778  12.9956597222222 22  11 22  C 9.00434027777778 22  7.16384548611111 21.5082465277778  5.478515625 20.5247395833333  C 3.79318576388889 19.5412326388889  2.45876736111111 18.2068142361111  1.47526041666667 16.521484375  C 0.491753472222222 14.8361545138889  0 12.9956597222222  0 11  C 0 9.00434027777778  0.491753472222222 7.16384548611111  1.47526041666667 5.478515625  C 2.45876736111111 3.79318576388889  3.79318576388889 2.45876736111111  5.478515625 1.47526041666667  C 7.16384548611111 0.49175347222222  9.00434027777778 0  11 0  C 12.9956597222222 0  14.8361545138889 0.49175347222222  16.521484375 1.47526041666667  C 18.2068142361111 2.45876736111111  19.5412326388889 3.79318576388889  20.5247395833333 5.478515625  Z " fill-rule="nonzero" fill="#9fa0a5" stroke="none" transform="matrix(1 0 0 1 815 1216 )" />
  </g>
</svg>