<?xml version="1.0" encoding="utf-8"?>
<svg version="1.1" xmlns:xlink="http://www.w3.org/1999/xlink" width="20px" height="15px" xmlns="http://www.w3.org/2000/svg">
  <g transform="matrix(1 0 0 1 -815 -1307 )">
    <path d="M 18.4654017857143 13.53515625  C 18.5360863095238 13.4676846590909  18.5714285714286 13.3877840909091  18.5714285714286 13.2954545454545  L 18.5714285714286 5.11363636363636  C 18.3333333333333 5.36931818181818  18.0766369047619 5.60369318181818  17.8013392857143 5.81676136363636  C 15.8072916666667 7.27982954545454  14.2224702380952 8.48011363636364  13.046875 9.41761363636364  C 12.6674107142857 9.72301136363636  12.358630952381 9.9609375  12.1205357142857 10.1313920454545  C 11.8824404761905 10.3018465909091  11.5606398809524 10.4740767045455  11.1551339285714 10.6480823863636  C 10.7496279761905 10.8220880681818  10.3683035714286 10.9090909090909  10.0111607142857 10.9090909090909  L 10 10.9090909090909  L 9.98883928571429 10.9090909090909  C 9.63169642857143 10.9090909090909  9.25037202380952 10.8220880681818  8.84486607142857 10.6480823863636  C 8.43936011904762 10.4740767045455  8.11755952380952 10.3018465909091  7.87946428571429 10.1313920454545  C 7.64136904761905 9.9609375  7.33258928571429 9.72301136363636  6.953125 9.41761363636364  C 5.77752976190476 8.48011363636364  4.19270833333333 7.27982954545454  2.19866071428571 5.81676136363636  C 1.9233630952381 5.60369318181818  1.66666666666667 5.36931818181818  1.42857142857143 5.11363636363636  L 1.42857142857143 13.2954545454545  C 1.42857142857143 13.3877840909091  1.46391369047619 13.4676846590909  1.53459821428571 13.53515625  C 1.60528273809524 13.6026278409091  1.6889880952381 13.6363636363636  1.78571428571429 13.6363636363636  L 18.2142857142857 13.6363636363636  C 18.3110119047619 13.6363636363636  18.3947172619048 13.6026278409091  18.4654017857143 13.53515625  Z M 18.0524553571429 3.49964488636364  C 18.3984375 2.98473011363636  18.5714285714286 2.51775568181818  18.5714285714286 2.09872159090909  L 18.5714285714286 1.98153409090909  L 18.5714285714286 1.83771306818182  C 18.5714285714286 1.83771306818182  18.569568452381 1.79154829545454  18.5658482142857 1.69921875  C 18.5621279761905 1.60688920454545  18.5509672619048 1.5625  18.5323660714286 1.56605113636364  C 18.5137648809524 1.56960227272727  18.4933035714286 1.53764204545454  18.4709821428571 1.47017045454545  C 18.4486607142857 1.40269886363636  18.4151785714286 1.37606534090909  18.3705357142857 1.39026988636364  C 18.3258928571429 1.40447443181818  18.2738095238095 1.39559659090909  18.2142857142857 1.36363636363636  L 1.78571428571429 1.36363636363636  C 1.6889880952381 1.36363636363636  1.60528273809524 1.39737215909091  1.53459821428571 1.46484375  C 1.46391369047619 1.53231534090909  1.42857142857143 1.61221590909091  1.42857142857143 1.70454545454545  C 1.42857142857143 2.89772727272727  1.97544642857143 3.90625  3.06919642857143 4.73011363636364  C 4.50520833333333 5.80965909090909  5.99702380952381 6.93536931818182  7.54464285714286 8.10724431818182  C 7.58928571428571 8.14275568181818  7.71949404761905 8.24751420454545  7.93526785714286 8.42151988636364  C 8.15104166666667 8.59552556818182  8.32217261904762 8.72869318181818  8.44866071428571 8.82102272727273  C 8.57514880952381 8.91335227272727  8.74069940476191 9.02521306818182  8.9453125 9.15660511363636  C 9.14992559523809 9.28799715909091  9.33779761904762 9.38565340909091  9.50892857142857 9.44957386363636  C 9.68005952380952 9.51349431818182  9.84002976190476 9.54545454545455  9.98883928571429 9.54545454545455  L 10 9.54545454545455  L 10.0111607142857 9.54545454545455  C 10.1599702380952 9.54545454545455  10.3199404761905 9.51349431818182  10.4910714285714 9.44957386363636  C 10.6622023809524 9.38565340909091  10.8500744047619 9.28799715909091  11.0546875 9.15660511363636  C 11.2593005952381 9.02521306818182  11.4248511904762 8.91335227272727  11.5513392857143 8.82102272727273  C 11.6778273809524 8.72869318181818  11.8489583333333 8.59552556818182  12.0647321428571 8.42151988636364  C 12.280505952381 8.24751420454545  12.4107142857143 8.14275568181818  12.4553571428571 8.10724431818182  C 14.0029761904762 6.93536931818182  15.4947916666667 5.80965909090909  16.9308035714286 4.73011363636364  C 17.3325892857143 4.42471590909091  17.7064732142857 4.01455965909091  18.0524553571429 3.49964488636364  Z M 19.4754464285714 0.500710227272727  C 19.8251488095238 0.834517045454544  20 1.23579545454545  20 1.70454545454545  L 20 13.2954545454545  C 20 13.7642045454545  19.8251488095238 14.1654829545455  19.4754464285714 14.4992897727273  C 19.1257440476191 14.8330965909091  18.7053571428571 15  18.2142857142857 15  L 1.78571428571429 15  C 1.29464285714286 15  0.874255952380952 14.8330965909091  0.524553571428571 14.4992897727273  C 0.17485119047619 14.1654829545455  0 13.7642045454545  0 13.2954545454545  L 0 1.70454545454545  C 0 1.23579545454545  0.17485119047619 0.834517045454544  0.524553571428571 0.500710227272727  C 0.874255952380952 0.166903409090907  1.29464285714286 0  1.78571428571429 0  L 18.2142857142857 0  C 18.7053571428571 0  19.1257440476191 0.166903409090907  19.4754464285714 0.500710227272727  Z " fill-rule="nonzero" fill="#9fa0a5" stroke="none" transform="matrix(1 0 0 1 815 1307 )" />
  </g>
</svg>