<?xml version="1.0" encoding="utf-8"?>
<svg version="1.1" xmlns:xlink="http://www.w3.org/1999/xlink" width="128px" height="42px" xmlns="http://www.w3.org/2000/svg">
  <defs>
    <filter x="1250px" y="1346px" width="128px" height="42px" filterUnits="userSpaceOnUse" id="filter50">
      <feOffset dx="0" dy="0" in="SourceAlpha" result="shadowOffsetInner" />
      <feGaussianBlur stdDeviation="2.5" in="shadowOffsetInner" result="shadowGaussian" />
      <feComposite in2="shadowGaussian" operator="atop" in="SourceAlpha" result="shadowComposite" />
      <feColorMatrix type="matrix" values="0 0 0 0 0  0 0 0 0 0  0 0 0 0 0  0 0 0 0.313725490196078 0  " in="shadowComposite" />
    </filter>
    <g id="widget51">
      <path d="M 4.60039705666077 31.6823682164145  C 3.41799627843898 31.6512524064613  2.4222903599366 31.2311889720929  1.61327930115317 30.4221779133097  C 0.78871033739324 29.5976089495498  0.376425855513389 28.6096819835357  1 27.4583970152671  L 1 4.51826612726791  C 0.384204808001641 3.33586534904612  0.804268242369972 2.34015943054374  1.61327930115317 1.53114837176031  C 2.4378482649131 0.70657940800038  3.42577523092723 0.294294926120529  4.57706019919578 0.294294926120529  L 99.4489996417656 0.340968641050495  C 100.615842515011 0.325410736073763  101.903259151824 0.609342501896663  103.311249552207 1.19276393851942  C 104.719239952589 1.77618537514195  105.835519634661 2.48018057533318  106.66008859842 3.30474953909288  L 116.36822130382 13.0128822444924  C 117.177232362603 13.8218933032758  117.581737891995 14.8175992217782  117.581737891995 16  C 117.581737891995 17.1824007782218  117.177232362603 18.1781066967242  116.36822130382 18.9871177555076  L 106.66008859842 28.6952504609069  C 105.835519634661 29.5198194246668  104.719239952589 30.2238146248581  103.311249552207 30.8072360614806  C 101.903259151824 31.3906574981033  100.608063562522 31.6823682164145  99.4256627843006 31.6823682164145  L 4.60039705666077 31.6823682164145  Z " fill-rule="nonzero" fill="#f82f2f" stroke="none" transform="matrix(1 0 0 1 1255 1351 )" />
    </g>
  </defs>
  <g transform="matrix(1 0 0 1 -1250 -1346 )">
    <use xlink:href="#widget51" filter="url(#filter50)" />
    <use xlink:href="#widget51" />
  </g>
</svg>