<?xml version="1.0" encoding="UTF-8"?>
<svg width="20px" height="20px" viewBox="0 0 20 20" version="1.1" xmlns="http://www.w3.org/2000/svg" xmlns:xlink="http://www.w3.org/1999/xlink">
    <!-- Generator: Sketch 49.2 (51160) - http://www.bohemiancoding.com/sketch -->
    <title>icon_insertobj</title>
    <desc>Created with Sketch.</desc>
    <defs></defs>
    <g id="UI---Top-bar" stroke="none" stroke-width="1" fill="none" fill-rule="evenodd">
        <g id="topbar" transform="translate(-165.000000, -13.000000)">
            <g id="Group-9" transform="translate(135.000000, 13.000000)">
                <g id="Group-7">
                    <g id="Group-24">
                        <g id="icon_insertobj" transform="translate(30.000000, 0.000000)">
                            <path d="M5.1277704,1 C3.65310186,1 3.09403919,1.10795998 2.51790745,1.41607861 C2.04032407,1.67149299 1.67149299,2.04032407 1.41607861,2.51790745 C1.10795998,3.09403919 1,3.65310186 1,5.1277704 L1,14.8722296 C1,16.3468981 1.10795998,16.9059608 1.41607861,17.4820925 C1.67149299,17.9596759 2.04032407,18.328507 2.51790745,18.5839214 C3.09403919,18.89204 3.65310186,19 5.1277704,19 L14.8722296,19 C16.3468981,19 16.9059608,18.89204 17.4820925,18.5839214 C17.9596759,18.328507 18.328507,17.9596759 18.5839214,17.4820925 C18.89204,16.9059608 19,16.3468981 19,14.8722296 L19,5.1277704 C19,3.65310186 18.89204,3.09403919 18.5839214,2.51790745 C18.328507,2.04032407 17.9596759,1.67149299 17.4820925,1.41607861 C16.9059608,1.10795998 16.3468981,1 14.8722296,1 L5.1277704,1 Z M5.1277704,-2.07168062e-16 L14.8722296,2.07168062e-16 C16.6552671,-1.2037061e-16 17.3018396,0.185651222 17.9536914,0.534265408 C18.6055433,0.882879593 19.1171204,1.39445674 19.4657346,2.04630859 C19.8143488,2.69816044 20,3.34473292 20,5.1277704 L20,14.8722296 C20,16.6552671 19.8143488,17.3018396 19.4657346,17.9536914 C19.1171204,18.6055433 18.6055433,19.1171204 17.9536914,19.4657346 C17.3018396,19.8143488 16.6552671,20 14.8722296,20 L5.1277704,20 C3.34473292,20 2.69816044,19.8143488 2.04630859,19.4657346 C1.39445674,19.1171204 0.882879593,18.6055433 0.534265408,17.9536914 C0.185651222,17.3018396 8.02470732e-17,16.6552671 -1.38112041e-16,14.8722296 L1.38112041e-16,5.1277704 C-8.02470732e-17,3.34473292 0.185651222,2.69816044 0.534265408,2.04630859 C0.882879593,1.39445674 1.39445674,0.882879593 2.04630859,0.534265408 C2.69816044,0.185651222 3.34473292,1.2037061e-16 5.1277704,-2.07168062e-16 Z" id="Rectangle-8" fill="#666666" fill-rule="nonzero"></path>
                            <g id="Group-11" transform="translate(6.000000, 6.000000)" fill="#008FE0">
                                <rect id="Rectangle-9" x="3" y="0" width="2" height="8"></rect>
                                <rect id="Rectangle-9-Copy" x="0" y="3" width="8" height="2"></rect>
                            </g>
                        </g>
                    </g>
                </g>
            </g>
        </g>
    </g>
</svg>