<?xml version="1.0" encoding="utf-8"?>
<svg version="1.1" xmlns:xlink="http://www.w3.org/1999/xlink" width="21px" height="17px" xmlns="http://www.w3.org/2000/svg">
  <g transform="matrix(1 0 0 1 -431 -1533 )">
    <path d="M 20.0660860837521 7.53045999243593  C 20.0660860837521 7.53045999243593  3.1996007563149 7.53045999243593  3.1996007563149 7.53045999243593  C 3.1996007563149 7.53045999243593  9.43565527974091 1.5611398517181  9.43565527974091 1.5611398517181  C 9.80361736274259 1.20832449040004  9.80922084624007 0.632039158401907  9.44810746529089 0.272543988177536  C 9.08574886578671 -0.0863439266916021  8.49489266144053 -0.0912019695324944  8.12693057843885 0.260398881075375  C 8.12693057843885 0.260398881075375  0.279563244846443 7.77214762376925  0.279563244846443 7.77214762376925  C 0.101496991481841 7.94278637855474  0.000634288527063598 8.17536517956137  1.16792495620211E-05 8.41826732160474  C -0.00123353930542344 8.66116946364825  0.097138726539348 8.89496277536507  0.273337152071445 9.06681604086089  C 0.273337152071445 9.06681604086089  8.13377928049132 16.7334148991074  8.13377928049132 16.7334148991074  C 8.31620379879842 16.9113407181542  8.55528576135789 17  8.79436772391735 17  C 9.03282707719932 17  9.27190903975878 16.9113407181542  9.45433355806587 16.7334148991074  C 9.81918259468006 16.3775632610137  9.81918259468006 15.8006706736605  9.45433355806587 15.4454262909219  C 9.45433355806587 15.4454262909219  3.20707206764488 9.35222605776183  3.20707206764488 9.35222605776183  C 3.20707206764488 9.35222605776183  20.0660860837521 9.35222605776183  20.0660860837521 9.35222605776183  C 20.5816065655209 9.35222605776183  21 8.94415045912895  21 8.44134302509888  C 21 7.93792833571385  20.5816065655209 7.53045999243593  20.0660860837521 7.53045999243593  Z " fill-rule="nonzero" fill="#ffffff" stroke="none" transform="matrix(1 0 0 1 431 1533 )" />
  </g>
</svg>