<?xml version="1.0" encoding="utf-8"?>
<svg version="1.1" xmlns:xlink="http://www.w3.org/1999/xlink" width="17px" height="16px" xmlns="http://www.w3.org/2000/svg">
  <g transform="matrix(1 0 0 1 -719 -1534 )">
    <path d="M 7.84822944444444 15.6939114222796  C 7.84822944444444 15.6939114222796  4.14077027777777 11.4783541181978  1.7015531388889 8.70484835354309  C 0.664926194444438 7.81113022421996  0 6.42959032015546  0 4.87914221646566  C 0 2.18446644142971  2.00850041666666 0  4.48611111111111 0  C 6.24280799999999 0  7.76367333333333 1.09817832710716  8.5 2.69775682494716  C 9.23632666666667 1.09817832710716  10.757192 0  12.5138888888889 0  C 14.9914995833333 0  17 2.18446644142971  17 4.87914221646566  C 17 6.42959032015546  16.3350738055556 7.81113022421996  15.2984468611111 8.70484835354309  C 12.8083817777778 11.5361709262751  9.15445041666667 15.690864269567  9.15445041666667 15.690864269567  C 8.79298933333334 16.1018626661253  8.20819263888888 16.1032062278136  7.84822944444444 15.6939114222796  Z " fill-rule="nonzero" fill="#ffffff" stroke="none" transform="matrix(1 0 0 1 719 1534 )" />
  </g>
</svg>