<?xml version="1.0" encoding="UTF-8"?>
<svg width="30px" height="19px" viewBox="0 0 30 19" version="1.1" xmlns="http://www.w3.org/2000/svg" xmlns:xlink="http://www.w3.org/1999/xlink">
    <!-- Generator: Sketch 49.2 (51160) - http://www.bohemiancoding.com/sketch -->
    <title>ic_share_update</title>
    <desc>Created with Sketch.</desc>
    <defs></defs>
    <g id="ic_share_update" stroke="none" stroke-width="1" fill="none" fill-rule="evenodd">
        <path d="M18.5,4 L19,5 C20.7119729,4.28397965 22.0453062,4.28397965 23,5 C24.3333333,6 24.8333333,7.33333333 24.5,9 C26.5,8.66666667 28,9.33333333 29,11 C29.7553749,12.2589581 30,14 29.5,16 C29.3631388,16.6741536 29.0456238,17.3206533 28.5474548,17.9394989 C28.4480095,18.063034 28.350769,18.1416626 28.2807159,18.210495 L13.4482727,9.03170776 L18.5,4 Z" id="Rectangle-2" fill="#089DEA"></path>
        <path d="M6.79660034,5 L8,5 C8.5,0.333129883 12,2.27373675e-13 13.279541,0 C14.559082,-2.27373675e-13 17.5,1 18.5,4 L13.3692932,9.13116455 L6.79660034,5 Z" id="Rectangle-3" fill="#34B7FB"></path>
        <path d="M13.5,8.97999954 L28.5,17.9899998 C28.4062043,18.0963237 28.334432,18.171465 28.2846832,18.2154236 C27.6926397,18.7385604 27.0920435,18.9849854 26.5,18.9849854 L5.5,18.9849854 C5.16666667,18.9949951 4.66666667,18.8333333 4,18.5 L13.5,8.97999954 Z" id="Rectangle" fill="#008FE0"></path>
        <path d="M7.01000023,5 L13.5100002,8.98999977 L4,18.5 C1.29443359,17.4143677 0.105163574,14.8277125 -1.86007e-11,12.3632886 C-0.105163574,9.89886475 1,8 2.35351562,6.48010993 C3.25585937,5.46684989 4.80802091,4.97347991 7.01000023,5 Z" id="Rectangle-4" fill="#2EB1FC"></path>
    </g>
</svg>