<?xml version="1.0" encoding="utf-8"?>
<svg version="1.1" xmlns:xlink="http://www.w3.org/1999/xlink" width="33px" height="30px" xmlns="http://www.w3.org/2000/svg">
  <defs>
    <mask fill="white" id="clip60">
      <path d="M 24.9645 1.584  C 24.9645 1.584  1.03125 23.896  1.03125 23.896  C 1.03125 23.896  5.89875 28.416  5.89875 28.416  C 6.2968125 28.79  6.8413125 29  7.4064375 29  C 7.973625 29  8.518125 28.79  8.9161875 28.416  C 8.9161875 28.416  31.3396875 7.506  31.3396875 7.506  C 31.7385434113458 7.14276777479361  31.9659864568213 6.63658553747093  31.96875 6.106  C 31.9671181739775 5.5740225276775  31.7395821441025 5.066186524189  31.3396875 4.702  C 31.3396875 4.702  27.9819375 1.582  27.9819375 1.582  C 27.5751704803475 1.20608083007613  27.034093347469 0.997498686452824  26.4721875 1  C 25.9070625 1  25.3625625 1.21  24.9645 1.584  Z " fill-rule="evenodd" />
    </mask>
  </defs>
  <g transform="matrix(1 0 0 1 -395 -2636 )">
    <path d="M 24.9645 1.584  C 24.9645 1.584  1.03125 23.896  1.03125 23.896  C 1.03125 23.896  5.89875 28.416  5.89875 28.416  C 6.2968125 28.79  6.8413125 29  7.4064375 29  C 7.973625 29  8.518125 28.79  8.9161875 28.416  C 8.9161875 28.416  31.3396875 7.506  31.3396875 7.506  C 31.7385434113458 7.14276777479361  31.9659864568213 6.63658553747093  31.96875 6.106  C 31.9671181739775 5.5740225276775  31.7395821441025 5.066186524189  31.3396875 4.702  C 31.3396875 4.702  27.9819375 1.582  27.9819375 1.582  C 27.5751704803475 1.20608083007613  27.034093347469 0.997498686452824  26.4721875 1  C 25.9070625 1  25.3625625 1.21  24.9645 1.584  Z " fill-rule="nonzero" fill="#02c398" stroke="none" transform="matrix(1 0 0 1 395 2636 )" />
    <path d="M 24.9645 1.584  C 24.9645 1.584  1.03125 23.896  1.03125 23.896  C 1.03125 23.896  5.89875 28.416  5.89875 28.416  C 6.2968125 28.79  6.8413125 29  7.4064375 29  C 7.973625 29  8.518125 28.79  8.9161875 28.416  C 8.9161875 28.416  31.3396875 7.506  31.3396875 7.506  C 31.7385434113458 7.14276777479361  31.9659864568213 6.63658553747093  31.96875 6.106  C 31.9671181739775 5.5740225276775  31.7395821441025 5.066186524189  31.3396875 4.702  C 31.3396875 4.702  27.9819375 1.582  27.9819375 1.582  C 27.5751704803475 1.20608083007613  27.034093347469 0.997498686452824  26.4721875 1  C 25.9070625 1  25.3625625 1.21  24.9645 1.584  Z " stroke-width="2" stroke="#666666" fill="none" transform="matrix(1 0 0 1 395 2636 )" mask="url(#clip60)" />
  </g>
</svg>