<?xml version="1.0" encoding="utf-8"?>
<svg version="1.1" xmlns:xlink="http://www.w3.org/1999/xlink" width="18px" height="14px" xmlns="http://www.w3.org/2000/svg">
  <defs>
    <mask fill="white" id="clip61">
      <path d="M 17 13  C 17 13  1 13  1 13  C 1 13  13 1  13 1  C 13 1  17 5  17 5  C 17 5  17 13  17 13  Z " fill-rule="evenodd" />
    </mask>
  </defs>
  <g transform="matrix(1 0 0 1 -385 -2658 )">
    <path d="M 17 13  C 17 13  1 13  1 13  C 1 13  13 1  13 1  C 13 1  17 5  17 5  C 17 5  17 13  17 13  Z " fill-rule="nonzero" fill="#ffffff" stroke="none" fill-opacity="0" transform="matrix(1 0 0 1 385 2658 )" />
    <path d="M 17 13  C 17 13  1 13  1 13  C 1 13  13 1  13 1  C 13 1  17 5  17 5  C 17 5  17 13  17 13  Z " stroke-width="2" stroke="#666666" fill="none" transform="matrix(1 0 0 1 385 2658 )" mask="url(#clip61)" />
  </g>
</svg>