<?xml version="1.0" encoding="utf-8"?>
<svg version="1.1" xmlns:xlink="http://www.w3.org/1999/xlink" width="147px" height="36px" xmlns="http://www.w3.org/2000/svg">
  <g transform="matrix(1 0 0 1 -158 -3160 )">
    <path d="M 231.5 3161  C 272.1 3161  304 3168.48  304 3178  C 304 3187.52  272.1 3195  231.5 3195  C 190.9 3195  159 3187.52  159 3178  C 159 3168.48  190.9 3161  231.5 3161  Z " fill-rule="nonzero" fill="#ffffff" stroke="none" fill-opacity="0" />
    <path d="M 231.5 3161  C 272.1 3161  304 3168.48  304 3178  C 304 3187.52  272.1 3195  231.5 3195  C 190.9 3195  159 3187.52  159 3178  C 159 3168.48  190.9 3161  231.5 3161  Z " stroke-width="2" stroke="#d9001b" fill="none" />
  </g>
</svg>