<?xml version="1.0" encoding="utf-8"?>
<svg version="1.1" xmlns:xlink="http://www.w3.org/1999/xlink" width="348px" height="268px" xmlns="http://www.w3.org/2000/svg">
  <g transform="matrix(1 0 0 1 -279 -4017 )">
    <path d="M 279.5 4282  C 279.5 4282  279.5 4037.97307692308  279.5 4037.97307692308  C 279.5 4036.5923650485  280.619288125423 4035.47307692308  282 4035.47307692308  C 282 4035.47307692308  550.332223270892 4035.47307692308  550.332223270892 4035.47307692308  C 550.332223270892 4035.47307692308  561.546213607616 4018.75850109553  561.546213607616 4018.75850109553  C 561.546213607616 4018.75850109553  573.047458869223 4035.47307692308  573.047458869223 4035.47307692308  C 573.047458869223 4035.47307692308  624 4035.47307692308  624 4035.47307692308  C 625.380711874577 4035.47307692308  626.5 4036.5923650485  626.5 4037.97307692308  C 626.5 4037.97307692308  626.5 4282  626.5 4282  C 626.5 4283.38071187458  625.380711874577 4284.5  624 4284.5  C 624 4284.5  282 4284.5  282 4284.5  C 280.619288125423 4284.5  279.5 4283.38071187458  279.5 4282  Z " fill-rule="nonzero" fill="#ffffff" stroke="none" />
    <path d="M 279 4282  C 279 4282  279 4037.97307692308  279 4037.97307692308  C 279 4036.31622267358  280.343145750508 4034.97307692308  282 4034.97307692308  C 282 4034.97307692308  550.065573770492 4034.97307692308  550.065573770492 4034.97307692308  C 550.065573770492 4034.97307692308  561.540983606557 4017.86885245902  561.540983606557 4017.86885245902  C 561.540983606557 4017.86885245902  573.310344827586 4034.97307692308  573.310344827586 4034.97307692308  C 573.310344827586 4034.97307692308  624 4034.97307692308  624 4034.97307692308  C 625.656854249492 4034.97307692308  627 4036.31622267358  627 4037.97307692308  C 627 4037.97307692308  627 4282  627 4282  C 627 4283.65685424949  625.656854249492 4285  624 4285  C 624 4285  282 4285  282 4285  C 280.343145750508 4285  279 4283.65685424949  279 4282  Z M 280 4282  C 280 4283.10456949966  280.895430500338 4284  282 4284  C 282 4284  624 4284  624 4284  C 625.104569499661 4284  626 4283.10456949966  626 4282  C 626 4282  626 4037.97307692308  626 4037.97307692308  C 626 4036.86850742342  625.104569499661 4035.97307692308  624 4035.97307692308  C 624 4035.97307692308  572.784572910858 4035.97307692308  572.784572910858 4035.97307692308  C 572.784572910858 4035.97307692308  561.551443608675 4019.64814973204  561.551443608675 4019.64814973204  C 561.551443608675 4019.64814973204  550.598872771292 4035.97307692308  550.598872771292 4035.97307692308  C 550.598872771292 4035.97307692308  282 4035.97307692308  282 4035.97307692308  C 280.895430500338 4035.97307692308  280 4036.86850742342  280 4037.97307692308  C 280 4037.97307692308  280 4282  280 4282  Z " fill-rule="nonzero" fill="#979797" stroke="none" />
  </g>
</svg>