<?xml version="1.0" encoding="utf-8"?>
<svg version="1.1" xmlns:xlink="http://www.w3.org/1999/xlink" width="20px" height="18px" xmlns="http://www.w3.org/2000/svg">
  <g transform="matrix(1 0 0 1 -651 -980 )">
    <path d="M 5.76764 0.2154  C 4.409822 0.2154  3.04778 0.760252  2.04128 1.85165  C 0.0277740000000002 4.035326  0.0303480000000005 7.47705  2.04128 9.66165  L 9.19128 17.43029  C 9.4001084 17.655438  9.692286 17.7835  9.999098 17.7835  C 10.305888 17.7835  10.59895 17.6554534  10.806916 17.43029  C 13.191716 14.84441  15.572116 12.26117  17.956916 9.67529  C 19.970422 7.491614  19.970422 4.04219  17.956916 1.85847  C 15.94341 -0.325205999999999  12.524896 -0.325205999999999  10.511236 1.85847  L 10.002486 2.40847  L 9.48685 1.851606  C 8.480526 0.760208000000002  7.12537 0.215356000000002  5.76753 0.215356000000002  Z M 5.76764 2.353536  C 6.517004 2.353536  7.263816 2.684394  7.87139 3.343536  L 9.198254 4.7804  C 9.4070824 5.005548  9.69926 5.13361  10.006072 5.13361  C 10.312862 5.13361  10.605924 5.0055634  10.81389 4.7804  L 12.13389 3.3504  C 13.349896 2.032116  15.12545 2.032116  16.34139 3.3504  C 17.557396 4.668684  17.557396 6.86534  16.34139 8.18358  C 14.227322 10.47642  12.11673 12.76662  10.00275 15.05858  L 3.66411 8.17676  C 2.448962 6.855902  2.448104 4.66182  3.66411 3.34358  C 4.271684 2.684438  5.018474 2.35358  5.76786 2.35358  Z " fill-rule="nonzero" fill="#ffffff" stroke="none" transform="matrix(1 0 0 1 651 980 )" />
  </g>
</svg>