<?xml version="1.0" encoding="utf-8"?>
<svg version="1.1" xmlns:xlink="http://www.w3.org/1999/xlink" width="9px" height="8px" xmlns="http://www.w3.org/2000/svg">
  <g transform="matrix(1 0 0 1 -490 -1138 )">
    <path d="M 2.595438 0.0957333333333334  C 1.9844199 0.0957333333333334  1.371501 0.337889777777778  0.918576 0.822955555555556  C 0.0124983000000001 1.79347822222222  0.0136566000000002 3.32313333333333  0.918576 4.29406666666667  L 4.136076 7.74679555555556  C 4.23004878 7.84686133333333  4.3615287 7.90377777777778  4.4995941 7.90377777777778  C 4.6376496 7.90377777777778  4.7695275 7.84686817777778  4.8631122 7.74679555555556  C 5.9362722 6.59751555555556  7.0074522 5.44940888888889  8.0806122 4.30012888888889  C 8.9866899 3.32960622222222  8.9866899 1.79652888888889  8.0806122 0.825986666666667  C 7.1745345 -0.144535999999999  5.6362032 -0.144535999999999  4.7300562 0.825986666666667  L 4.5011187 1.07043111111111  L 4.2690825 0.822936000000001  C 3.8162367 0.337870222222223  3.2064165 0.0957137777777785  2.5953885 0.0957137777777785  Z M 2.595438 1.046016  C 2.9326518 1.046016  3.2687172 1.193064  3.5421255 1.486016  L 4.1392143 2.12462222222222  C 4.23318708 2.224688  4.364667 2.28160444444444  4.5027324 2.28160444444444  C 4.6407879 2.28160444444444  4.7726658 2.22469484444444  4.8662505 2.12462222222222  L 5.4602505 1.48906666666667  C 6.0074532 0.903162666666667  6.8064525 0.903162666666667  7.3536255 1.48906666666667  C 7.9008282 2.07497066666667  7.9008282 3.05126222222222  7.3536255 3.63714666666667  C 6.4022949 4.65618666666667  5.4525285 5.67405333333333  4.5012375 6.69270222222222  L 1.6488495 3.63411555555556  C 1.1020329 3.04706755555556  1.1016468 2.07192  1.6488495 1.48603555555556  C 1.9222578 1.19308355555556  2.2583133 1.04603555555556  2.595537 1.04603555555556  Z " fill-rule="nonzero" fill="#a6a6bb" stroke="none" transform="matrix(1 0 0 1 490 1138 )" />
  </g>
</svg>