<?xml version="1.0" encoding="utf-8"?>
<svg version="1.1" xmlns:xlink="http://www.w3.org/1999/xlink" width="24px" height="9px" xmlns="http://www.w3.org/2000/svg">
  <g transform="matrix(1 0 0 1 -1021 -358 )">
    <path d="M 23.7455357142857 3.8671875  C 23.9151785714286 4.0453125  24 4.25625  24 4.5  C 24 4.74375  23.9151785714286 4.9546875  23.7455357142857 5.1328125  L 20.3169642857143 8.7328125  C 20.1473214285714 8.9109375  19.9464285714286 9  19.7142857142857 9  C 19.4821428571429 9  19.28125 8.9109375  19.1116071428571 8.7328125  C 18.9419642857143 8.5546875  18.8571428571429 8.34375  18.8571428571429 8.1  L 18.8571428571429 6.3  L 5.14285714285714 6.3  L 5.14285714285714 8.1  C 5.14285714285714 8.34375  5.05803571428571 8.5546875  4.88839285714286 8.7328125  C 4.71875 8.9109375  4.51785714285714 9  4.28571428571429 9  C 4.05357142857143 9  3.85267857142857 8.9109375  3.68303571428571 8.7328125  L 0.254464285714286 5.1328125  C 0.0848214285714286 4.9546875  0 4.74375  0 4.5  C 0 4.25625  0.0848214285714286 4.0453125  0.254464285714286 3.8671875  L 3.68303571428571 0.2671875  C 3.85267857142857 0.0890624999999989  4.05357142857143 0  4.28571428571429 0  C 4.51785714285714 0  4.71875 0.0890624999999989  4.88839285714286 0.2671875  C 5.05803571428571 0.4453125  5.14285714285714 0.65625  5.14285714285714 0.9  L 5.14285714285714 2.7  L 18.8571428571429 2.7  L 18.8571428571429 0.9  C 18.8571428571429 0.65625  18.9419642857143 0.4453125  19.1116071428571 0.2671875  C 19.28125 0.0890624999999989  19.4821428571429 0  19.7142857142857 0  C 19.9464285714286 0  20.1473214285714 0.0890624999999989  20.3169642857143 0.2671875  L 23.7455357142857 3.8671875  Z " fill-rule="nonzero" fill="#333333" stroke="none" transform="matrix(1 0 0 1 1021 358 )" />
  </g>
</svg>