<?xml version="1.0" encoding="utf-8"?>
<svg version="1.1" xmlns:xlink="http://www.w3.org/1999/xlink" width="24px" height="26px" xmlns="http://www.w3.org/2000/svg">
  <g transform="matrix(1 0 0 1 -1021 -282 )">
    <path d="M 14.1029411764706 2.3359375  C 13.7794117647059 2.01674107142857  13.3921568627451 1.85714285714286  12.9411764705882 1.85714285714286  C 12.4901960784314 1.85714285714286  12.1029411764706 2.01674107142857  11.7794117647059 2.3359375  C 11.4558823529412 2.65513392857143  11.2941176470588 3.03720238095238  11.2941176470588 3.48214285714286  L 11.2941176470588 13  L 10.8235294117647 13  L 10.8235294117647 5.33928571428572  C 10.8235294117647 4.89434523809524  10.6617647058824 4.51227678571428  10.3382352941176 4.19308035714286  C 10.0147058823529 3.87388392857143  9.62745098039216 3.71428571428572  9.17647058823529 3.71428571428572  C 8.72549019607843 3.71428571428572  8.33823529411765 3.87388392857143  8.01470588235294 4.19308035714286  C 7.69117647058824 4.51227678571428  7.52941176470588 4.89434523809524  7.52941176470588 5.33928571428572  L 7.52941176470588 13  L 7.52941176470588 16.7142857142857  L 5.26470588235294 13.7399553571429  C 4.8921568627451 13.2466517857143  4.3921568627451 13  3.76470588235294 13  C 3.24509803921569 13  2.80147058823529 13.1813616071429  2.43382352941176 13.5440848214286  C 2.06617647058824 13.9068080357143  1.88235294117647 14.344494047619  1.88235294117647 14.8571428571429  C 1.88235294117647 15.2730654761905  2.00980392156863 15.6454613095238  2.26470588235294 15.9743303571429  L 7.91176470588235 23.4029017857143  C 8.2843137254902 23.8962053571429  8.7843137254902 24.1428571428571  9.41176470588235 24  L 19.5294117647059 24  C 19.8627450980392 24.1428571428571  20.1617647058824 24.0364583333333  20.4264705882353 23.8236607142857  C 20.6911764705882 23.6108630952381  20.8578431372549 23.3400297619048  20.9264705882353 23.0111607142857  L 22.0441176470588 17.1350446428571  C 22.093137254902 16.8255208333333  22.1176470588235 16.5401785714286  22.1176470588235 16.2790178571429  L 22.1176470588235 9.05357142857143  C 22.1176470588235 8.60863095238095  21.9558823529412 8.2265625  21.6323529411765 7.90736607142857  C 21.3088235294118 7.58816964285714  20.921568627451 7.42857142857143  20.4705882352941 7.42857142857143  C 20.0196078431373 7.42857142857143  19.6323529411765 7.58816964285714  19.3088235294118 7.90736607142857  C 18.9852941176471 8.2265625  18.8235294117647 8.60863095238095  18.8235294117647 9.05357142857143  L 18.8235294117647 13  L 18.3529411764706 13  L 18.3529411764706 5.33928571428572  C 18.3529411764706 4.89434523809524  18.1911764705882 4.51227678571428  17.8676470588235 4.19308035714286  C 17.5441176470588 3.87388392857143  17.156862745098 3.71428571428572  16.7058823529412 3.71428571428572  C 16.2549019607843 3.71428571428572  15.8676470588235 3.87388392857143  15.5441176470588 4.19308035714286  C 15.2205882352941 4.51227678571428  15.0588235294118 4.89434523809524  15.0588235294118 5.33928571428572  L 15.0588235294118 13  L 14.5882352941176 13  L 14.5882352941176 3.48214285714286  C 14.5882352941176 3.03720238095238  14.4264705882353 2.65513392857143  14.1029411764706 2.3359375  Z M 11.0955882352941 0.515066964285716  C 11.6593137254902 0.171688988095239  12.2745098039216 0  12.9411764705882 0  C 13.6078431372549 0  14.2230392156863 0.171688988095239  14.7867647058824 0.515066964285716  C 15.3504901960784 0.858444940476189  15.7843137254902 1.32514880952381  16.0882352941176 1.91517857142857  C 16.2745098039216 1.87648809523809  16.4803921568627 1.85714285714286  16.7058823529412 1.85714285714286  C 17.6764705882353 1.85714285714286  18.5073529411765 2.19810267857143  19.1985294117647 2.88002232142857  C 19.8897058823529 3.56194196428572  20.2352941176471 4.38169642857143  20.2352941176471 5.33928571428572  L 20.2352941176471 5.5859375  C 21.2647058823529 5.52790178571428  22.1495098039216 5.83742559523809  22.8897058823529 6.51450892857143  C 23.6299019607843 7.19159226190476  24 8.03794642857143  24 9.05357142857143  L 24 16.2790178571429  C 24 16.6659226190476  23.9607843137255 17.0673363095238  23.8823529411765 17.4832589285714  L 22.7647058823529 23.3448660714286  C 22.6274509803922 24.1090029761905  22.2524509803922 24.7425595238095  21.6397058823529 25.2455357142857  C 21.0269607843137 25.7485119047619  20.3235294117647 26  19.5294117647059 26  L 9.41176470588235 26  C 8.82352941176471 26  8.26225490196078 25.8670014880952  7.72794117647059 25.6010044642857  C 7.19362745098039 25.3350074404762  6.75 24.9747023809524  6.39705882352941 24.5200892857143  L 0.75 17.0915178571429  C 0.25 16.4337797619048  0 15.6889880952381  0 14.8571428571429  C 0 13.8318452380952  0.367647058823529 12.9564732142857  1.10294117647059 12.2310267857143  C 1.83823529411765 11.5055803571429  2.72549019607843 11.1428571428571  3.76470588235294 11.1428571428571  C 4.52941176470588 11.1428571428571  5.15686274509804 11.3072916666667  5.64705882352941 11.6361607142857  L 5.64705882352941 5.33928571428572  C 5.64705882352941 4.38169642857143  5.99264705882353 3.56194196428572  6.68382352941176 2.88002232142857  C 7.375 2.19810267857143  8.20588235294118 1.85714285714286  9.17647058823529 1.85714285714286  C 9.40196078431373 1.85714285714286  9.6078431372549 1.87648809523809  9.79411764705882 1.91517857142857  C 10.0980392156863 1.32514880952381  10.531862745098 0.858444940476189  11.0955882352941 0.515066964285716  Z " fill-rule="nonzero" fill="#333333" stroke="none" transform="matrix(1 0 0 1 1021 282 )" />
  </g>
</svg>