<?xml version="1.0" encoding="UTF-8"?>
<svg width="20px" height="20px" viewBox="0 0 20 20" version="1.1" xmlns="http://www.w3.org/2000/svg" xmlns:xlink="http://www.w3.org/1999/xlink">
    <!-- Generator: Sketch 50.2 (55047) - http://www.bohemiancoding.com/sketch -->
    <title>adaptive_views</title>
    <desc>Created with Sketch.</desc>
    <defs></defs>
    <g id="adaptive_views" stroke="none" stroke-width="1" fill="none" fill-rule="evenodd">
        <path d="M3,4 L3,14 L12,14 L12,8.5 C12,8.16666667 12.1666667,8 12.5,8 L17,8 L17,4 L3,4 Z M2,3 L18,3 L18,9 L13,9 L13,15 L2,15 L2,3 Z" id="Rectangle-10-Copy" fill="#979797" fill-rule="nonzero"></path>
        <path d="M7.47632962,17 L12,17 L12,15 L7.51305475,15 C7.69555479,15.7088072 7.68398313,16.3816946 7.47632962,17 Z M6,14 L13,14 L13,18 L5.5,18 C6.83333333,17 7,15.6666667 6,14 Z" id="Rectangle" fill="#979797" fill-rule="nonzero"></path>
        <path d="M13,9 L13,17 L17,17 L17,9 L13,9 Z M13,8 L17,8 C17.5522847,8 18,8.44771525 18,9 L18,17 C18,17.5522847 17.5522847,18 17,18 L13,18 C12.4477153,18 12,17.5522847 12,17 L12,9 C12,8.44771525 12.4477153,8 13,8 Z" id="Rectangle-10-Copy-2" fill="#979797" fill-rule="nonzero"></path>
        <circle id="Oval" fill="#979797" cx="15" cy="15" r="1"></circle>
    </g>
</svg>