<?xml version="1.0" encoding="utf-8"?>
<svg version="1.1" xmlns:xlink="http://www.w3.org/1999/xlink" width="20px" height="14px" xmlns="http://www.w3.org/2000/svg">
  <g transform="matrix(1 0 0 1 -1017 -933 )">
    <path d="M 19.8358444940476 0.181684027777813  C 19.9055989583333 0.250954861111147  19.9404761904762 0.33946759259264  19.9404761904762 0.447222222222187  L 19.9404761904762 5.46935763888885  C 19.9404761904762 5.63098958333333  19.8649088541667 5.74451678240736  19.7137741815476 5.80993923611115  C 19.5626395089286 5.87536168981483  19.4250682043651 5.84649884259264  19.3010602678571 5.72335069444448  L 17.8943452380952 4.32638888888885  L 10.5352492559524 11.6344618055555  C 10.4577442956349 11.7114293981482  10.3686135912698 11.7499131944445  10.2678571428571 11.7499131944445  C 10.1671006944445 11.7499131944445  10.0779699900793 11.7114293981482  10.0004650297619 11.6344618055555  L 7.29166666666667 8.94444444444448  L 2.45535714285714 13.7472222222222  L 0.223214285714286 11.5305555555555  L 7.02427455357143 4.77664930555552  C 7.10177951388887 4.69968171296299  7.19091021825399 4.66119791666667  7.29166666666667 4.66119791666667  C 7.39242311507935 4.66119791666667  7.48155381944446 4.69968171296299  7.55905877976191 4.77664930555552  L 10.2678571428571 7.46666666666667  L 15.6622023809524 2.10972222222219  L 14.2554873511905 0.712760416666667  C 14.1314794146826 0.589612268518507  14.1024150545635 0.452994791666667  14.1682942708333 0.302907986111146  C 14.2341734871032 0.15282118055552  14.3484933035714 0.0777777777778131  14.5112537202381 0.0777777777778131  L 19.5684523809524 0.0777777777778131  C 19.6769593253968 0.0777777777778131  19.7660900297619 0.11241319444448  19.8358444940476 0.181684027777813  Z " fill-rule="nonzero" fill="#309282" stroke="none" transform="matrix(1 0 0 1 1017 933 )" />
  </g>
</svg>